# xmcd
#
# Track frame offsets:
# 150
# 17132
# 42570
# 68663
# 99230
# 118365
# 146975
# 171124
# 192923
# 217629
# 234470
# 254340
# 289995
# 307374
# 322306
#
# Disc length: 4603 seconds
#
# Revision: 0
# Processed by: cddbd v1.5.2PL0 Copyright (c) Steve Scherf et al.
# Submitted via: Audion 3.0.2 (http://www.panic.com/audion/)
#
DISCID=ec11f90f
DTITLE=Elton John - The Songs Of Elton John and Bernie Taupin-Disc 3
DYEAR=1900
DGENRE=
TTITLE0=The Bitch Is Back
TTITLE1=Don't Let The Sun Go Down On Me
TTITLE2=Captain Fantastic and The Brown Dirt Cowboy
TTITLE3=Someone Saved My Life Tonight
TTITLE4=We All Fall In Love Sometimes
TTITLE5=Curtains
TTITLE6=Philadelphia Freedom
TTITLE7=Grow Some Funk Of Your Own
TTITLE8=I Feel Like A Bullet (In The Gun Of Robert Ford)
TTITLE9=Island Girl
TTITLE10=Don't Go Breaking My Heart
TTITLE11=Tonight
TTITLE12=Sorry Seems To Be The Hardest Word
TTITLE13=Part-Time Love
TTITLE14=Song For Guy (Single Edit)
EXTD=
EXTT0=
EXTT1=
EXTT2=
EXTT3=
EXTT4=
EXTT5=
EXTT6=
EXTT7=
EXTT8=
EXTT9=
EXTT10=
EXTT11=
EXTT12=
EXTT13=
EXTT14=
PLAYORDER=
